<svg xmlns="http://www.w3.org/2000/svg" xmlns:xlink="http://www.w3.org/1999/xlink" viewBox="0 0 1039.703 817.557">
  <defs>
    <style>
      .cls-1 {
        opacity: 0.93;
        fill: url(#linear-gradient);
      }
    </style>
    <linearGradient id="linear-gradient" x1="0.023" y1="1.121" x2="0.99" y2="0.171" gradientUnits="objectBoundingBox">
      <stop offset="0" stop-color="#464646"/>
      <stop offset="0.54" stop-color="#77355e"/>
      <stop offset="1" stop-color="#f50b9a"/>
    </linearGradient>
  </defs>
  <path id="Path_346" data-name="Path 346" class="cls-1" d="M701.312,62.556c45.153,19.542,156.435,69.282,243.2,187.779,46.777,63.883,109.514,149.506,92.217,250.372-18.587,108.176-118.114,169-201.158,219.792-159.254,97.33-316.357,97.616-375.08,97-101.582-1.1-200.106-2.2-292.9-68.327C36.584,655.8-37.189,465.254,19,349.242c26.471-54.661,57.48-42.573,168.667-150.51C299.475,90.221,287.1,59.594,348.211,27.2,470.2-37.4,623.955,29.11,701.312,62.556Z" transform="translate(0.03 -0.021)"/>
</svg>
