<svg xmlns="http://www.w3.org/2000/svg" xmlns:xlink="http://www.w3.org/1999/xlink" viewBox="0 0 1369 133.565">
  <defs>
    <style>
      .cls-1 {
        fill: #f8f8f8;
        opacity: 0.41;
      }

      .cls-2 {
        fill: #fff;
      }

      .cls-3 {
        opacity: 0.19;
        fill: url(#linear-gradient);
      }

      .cls-4 {
        opacity: 0.23;
        fill: url(#linear-gradient-2);
      }

      .cls-5 {
        opacity: 0.38;
        fill: url(#linear-gradient-3);
      }
    </style>
    <linearGradient id="linear-gradient" x1="0.081" y1="0.787" x2="0.589" y2="-0.399" gradientUnits="objectBoundingBox">
      <stop offset="0" stop-color="#f8f8f8"/>
      <stop offset="1" stop-color="#7c7c7c"/>
    </linearGradient>
    <linearGradient id="linear-gradient-2" x1="0.72" y1="0.5" x2="0.176" y2="0.158" gradientUnits="objectBoundingBox">
      <stop offset="0" stop-color="#f8f8f8"/>
      <stop offset="0.965" stop-color="#828282"/>
      <stop offset="1" stop-color="#7c7c7c"/>
    </linearGradient>
    <linearGradient id="linear-gradient-3" x1="-0.049" y1="0.857" x2="0.554" y2="-0.404" xlink:href="#linear-gradient"/>
  </defs>
  <g id="Group_90" data-name="Group 90" transform="translate(1369 133.589) rotate(180)">
    <path id="Path_362" data-name="Path 362" class="cls-1" d="M1369,11.881V132.638H0V47.473C123.426,20.4,223.845,13.407,291.087,11.881c1.907,0,3.813-.127,5.72-.127C391.125,9.975,426.843,19,570.226,27.389c20.338,1.144,42.71,2.415,67.878,3.559,19.957.89,38.515,1.78,55.929,2.542,112.24,4.957,174.525,6.864,223.718,2.542C1025.034,26.626,1095.073,6.67,1204.9,3.873c19.7-.508,40.8-.508,63.683.381C1311.291,5.653,1346.12,9.085,1369,11.881Z" transform="translate(0 0.951)"/>
    <path id="Path_363" data-name="Path 363" class="cls-1" d="M1369,11.881V132.638H0V47.473C123.426,20.4,223.845,13.407,291.087,11.881c1.907,0,3.813-.127,5.72-.127C391.125,9.975,426.843,19,570.226,27.389c20.338,1.144,42.71,2.415,67.878,3.559,19.957.89,38.515,1.78,55.929,2.542,112.24,4.957,174.525,6.864,223.718,2.542C1025.034,26.626,1095.073,6.67,1204.9,3.873c19.7-.508,40.8-.508,63.683.381C1311.291,5.653,1346.12,9.085,1369,11.881Z" transform="translate(0 0.951)"/>
    <path id="Path_364" data-name="Path 364" class="cls-1" d="M1369,11.884V132.641H0V47.476C123.426,20.4,223.845,13.41,291.087,11.884H292.1c1.652,0,3.178-.127,4.83-.127C391.252,9.978,426.97,19,570.353,27.392c20.338,1.144,42.71,2.415,67.878,3.559,19.957.89,38.515,1.78,55.929,2.542,88.724,3.94,146.179,5.974,190.669,4.449,11.821-.381,22.753-1.017,33.049-1.907,107.156-9.406,177.195-29.363,287.02-32.159,15.508-.381,31.778-.508,49.065-.127,4.83.127,9.66.254,14.618.381C1311.291,5.656,1346.12,9.088,1369,11.884Z" transform="translate(0 0.948)"/>
    <path id="Path_365" data-name="Path 365" class="cls-2" d="M1369,11.83V132.587H0V47.422C123.426,20.347,223.845,13.355,291.087,11.83H292.1c1.652,0,3.178-.127,4.83-.127,94.317-1.78,130.036,7.245,273.419,15.635,20.338,1.144,42.71,2.415,67.878,3.559,19.957.89,38.515,1.78,55.929,2.542,17.669.763,34.066,1.525,49.32,2.161,61.649,2.542,105.757,3.559,141.349,2.415,11.821-.381,22.753-1.017,33.049-1.907,83.513-7.373,144.4-20.974,219.015-27.965,21.355-2.034,43.727-3.432,68.132-4.068,15.508-.381,31.778-.508,49.065-.127,4.83.127,9.661.254,14.618.381C1311.291,5.6,1346.12,9.034,1369,11.83Z" transform="translate(0 1.002)"/>
    <path id="Path_366" data-name="Path 366" class="cls-3" d="M978.213,7.862C903.6,14.854,842.711,28.582,759.2,35.827c-10.3.89-21.228,1.525-33.049,1.907-35.591,1.144-79.7.127-141.349-2.415C699.074,11.8,792.247,5.574,855.8,4.176h1.017c1.653,0,3.178-.127,4.83-.127C908.047,3.159,940.333,4.939,978.213,7.862Z" transform="translate(158.553 1.029)"/>
    <path id="Path_367" data-name="Path 367" class="cls-4" d="M822.425,38.89c-44.489,1.4-101.944-.636-190.669-4.449-17.414-.763-35.973-1.652-55.929-2.542-25.041-1.144-47.54-2.288-67.878-3.559C364.566,19.95,328.848,10.925,234.53,12.7c-1.525,0-3.178.127-4.83.127A1076.654,1076.654,0,0,1,408.039.121C566.548,1.9,655.654,37.873,822.425,38.89Z" transform="translate(62.277 0)"/>
    <path id="Path_368" data-name="Path 368" class="cls-5" d="M296.807,11.674c-1.907,0-3.813.127-5.72.127C223.845,13.326,123.426,20.317,0,47.392V12.945c51.1-5.72,94.826-8.008,129.655-8.771C196.643,2.649,234.014,6.335,296.807,11.674Z" transform="translate(0 1.031)"/>
  </g>
</svg>
