<svg id="Group_72" data-name="Group 72" xmlns="http://www.w3.org/2000/svg" viewBox="0 0 1366 104">
  <defs>
    <style>
      .cls-1 {
        fill: #fffdfd;
      }

      .cls-2 {
        fill: #d6d6d6;
        opacity: 0.722;
      }
    </style>
  </defs>
  <path id="Path_334" data-name="Path 334" class="cls-1" d="M1366,0V104H0V0A2915.556,2915.556,0,0,0,339,46c204.4,15.6,362.1,5.9,621-11C1060.9,28.4,1199.9,17.8,1366,0Z"/>
  <path id="Path_335" data-name="Path 335" class="cls-2" d="M1366,0c-166.1,17.8-305.1,28.4-406,35C701.1,51.9,543.4,61.6,339,46A2915.556,2915.556,0,0,1,0,0C42.3,7.5,110.2,18.5,194,27c270.8,27.5,443.5,2.3,799-15C1079.2,7.8,1207.8,2.5,1366,0Z"/>
</svg>
